<svg xmlns="http://www.w3.org/2000/svg" viewBox="0 0 512 512">
  <path fill="#ff00d1"
    d="M304.25 124.21q-16.39 36.07-32.11 72.42c-5.54 12.83 1.24 19.85 14.54 17.95q29.46-4.19 58.82-9.12c8-.66 21.8-3.43 20.65 10.01q-.3 3.41-1.37 5.29-50.53 88.22-101.21 176.34-21.23 37.1-42.63 74.09-2.75 4.75-5.44 7.52c-8.18 6.68-20.32-.45-16.8-10.99q12.31-36.87 24.72-74.05l12.53-36.96q7.64-22.56 15.13-45.24c2.62-7.94 4.18-18.14-5.74-21.65q-5.28-1.87-8.6-1.35-23.49 3.65-46.99 7.32-17.13 3.18-23.75 3.73c-15.73 1.3-15.82-7.77-11.64-19.89q26.58-76.97 53.35-153.88 8.57-25.28 17.31-50.49c4.12-11.85 14.81-8.19 23.95-7.49q44.01 3.42 63.78 5.44c9.21.94 10.68 8.77 7.27 16.04q-8.14 17.37-15.77 34.96Z" />
  <g fill="#56006a">
    <path
      d="m304.25 124.21 18.06 8.19q0 1.32-.51 2.46-.68 1.5-.76 2.29c-.67 6.95-.66 13.58.52 20.46.81 4.72.81 8.59 3.24 13.45.92 1.84 1.44 5.44 2.53 6.62q1.44 1.54 4.15 6.59 2.36 4.39 12.78 16.21 1.14 1.29 1.24 4.98-29.36 4.93-58.82 9.12c-13.3 1.9-20.08-5.12-14.54-17.95q15.72-36.35 32.11-72.42Z" />
    <path
      d="M322.31 132.4q14.77 7.82 27.4 18.85c67.55 60.32 62.47 166.3-11.02 219.76q-11.81 8.25-24.94 14.28-23.77 10.56-50.18 11.81 50.68-88.12 101.21-176.34 1.07-1.88 1.37-5.29c1.15-13.44-12.65-10.67-20.65-10.01q-.1-3.69-1.24-4.98-10.42-11.82-12.78-16.21-2.71-5.05-4.15-6.59c-1.09-1.18-1.61-4.78-2.53-6.62-2.43-4.86-2.43-8.73-3.24-13.45-1.18-6.88-1.19-13.51-.52-20.46q.08-.79.76-2.29.51-1.14.51-2.46Z" />
  </g>
  <g fill="#56006a">
    <path
      d="M207.71 125.75q-26.77 76.91-53.35 153.88c-4.18 12.12-4.09 21.19 11.64 19.89q6.62-.55 23.75-3.73.25.15.38.48.08.19-.12.23-.13.02-.26 0-.95-.17-.12.62 2.5 2.4 5.01 4.77c2.01 1.9 4.89 3.47 7.06 5.72 4.06 4.19 8.56 6.44 12.16 11.41q.3.42.77.64c2.35 1.09 2.92 3.72 4.12 5.24 5.74 7.22 9.6 15.43 12.31 22.77.5 1.36.29 3.15 1.87 4.49q.36.31.37.79.01 2.79 2.65 3.76l-12.53 36.96q-32.19-8.61-57.63-29.67c-60.75-52.86-66.37-141.72-13.04-201.96q22.92-24.83 54-36.79.65-.25.96.5Z" />
    <path
      d="M235.95 356.71q-2.64-.97-2.65-3.76-.01-.48-.37-.79c-1.58-1.34-1.37-3.13-1.87-4.49-2.71-7.34-6.57-15.55-12.31-22.77-1.2-1.52-1.77-4.15-4.12-5.24q-.47-.22-.77-.64c-3.6-4.97-8.1-7.22-12.16-11.41-2.17-2.25-5.05-3.82-7.06-5.72q-2.51-2.37-5.01-4.77-.83-.79.12-.62.13.02.26 0 .2-.04.12-.23-.13-.33-.38-.48 23.5-3.67 46.99-7.32 3.32-.52 8.6 1.35c9.92 3.51 8.36 13.71 5.74 21.65q-7.49 22.68-15.13 45.24Z" />
  </g>
</svg>